<svg xmlns="http://www.w3.org/2000/svg" viewBox="0 0 448 512" width="80" height="80" style="background: rgba(255,255,255,0.1); border-radius: 6px; border: 1px solid rgba(255,255,255,0.2);">
    <!-- Основная иконка бегуна -->
    <path d="M320 48a48 48 0 1 0 -96 0 48 48 0 1 0 96 0zM125.7 175.5c9.9-9.9 23.4-15.5 37.5-15.5c1.9 0 3.8 .1 5.6 .3L137.6 254c-9.3 28 1.7 58.8 26.8 74.5l86.2 53.9-25.4 88.8c-4.9 17 5 34.7 22 39.6s34.7-5 39.6-22l28.7-100.4c5.9-20.6-2.6-42.6-20.7-53.9L238 299l30.9-82.4 5.1 12.3C289 264.7 323.9 288 362.7 288l21.3 0c17.7 0 32-14.3 32-32s-14.3-32-32-32l-21.3 0c-12.9 0-24.6-7.8-29.5-19.7l-6.3-15c-14.6-35.1-44.1-61.9-80.5-73.1l-48.7-15c-11.1-3.4-22.7-5.2-34.4-5.2c-31 0-60.8 12.3-82.7 34.3L57.4 153.4c-12.5 12.5-12.5 32.8 0 45.3s32.8 12.5 45.3 0l23.1-23.1zM91.2 352L32 352c-17.7 0-32 14.3-32 32s14.3 32 32 32l69.6 0c19 0 36.2-11.2 43.9-28.5L157 361.6l-9.5-6c-17.5-10.9-30.5-26.8-37.9-44.9L91.2 352z" 
          fill="#333"/>
    
    <!-- Большая зеленая карта в правом нижнем углу (занимает четверть) -->
    <g transform="translate(224, 256) scale(0.5)">
        <path d="M288 0c-69.59 0-126 56.41-126 126 0 56.26 82.35 158.8 113.9 196.02 6.39 7.54 17.82 7.54 24.2 0C331.65 284.8 414 182.26 414 126 414 56.41 357.59 0 288 0zm0 168c-23.2 0-42-18.8-42-42s18.8-42 42-42 42 18.8 42 42-18.8 42-42 42zM20.12 215.95A32.006 32.006 0 0 0 0 245.66v250.32c0 11.32 11.43 19.06 21.94 14.86L160 448V214.92c-8.84-15.98-16.07-31.54-21.25-46.42L20.12 215.95zM288 359.67c-14.07 0-27.38-6.18-36.51-16.96-19.66-23.2-40.57-49.62-59.49-76.72v182l192 64V266c-18.92 27.09-39.82 53.52-59.49 76.72-9.13 10.77-22.44 16.95-36.51 16.95zm266.06-198.51L416 224v288l139.88-55.95A31.996 31.996 0 0 0 576 426.34V176.02c0-11.32-11.43-19.06-21.94-14.86z" 
              fill="#28a745"/>
    </g>
</svg>